<svg width="57" height="39" viewBox="0 0 57 39" fill="none" xmlns="http://www.w3.org/2000/svg">
<path d="M1.95648 29.3681C2.58759 27.784 5.97264 24.179 8.32497 22.9423C10.03 22.0459 13.8265 20.1373 16.6649 19.2225C20.2007 18.083 30.0569 17.2559 34.4603 17.5205C36.6004 17.649 40.1802 18.6329 44.284 20.0656C47.0545 21.0329 50.603 23.516 52.4183 24.8484C53.2767 25.4784 54.4375 26.0692 55.1292 27.129C55.4347 27.5971 55.0846 28.1888 54.7658 28.5649C53.0166 30.629 49.5639 31.8097 47.5973 32.605C45.7181 33.3648 42.8831 34.672 38.9434 35.6346C36.849 36.1464 34.6914 36.3805 32.1972 36.6976C26.7379 37.3918 21.2277 37.6555 17.637 37.92C14.4022 38.1584 11.6399 37.2347 7.44364 35.378C5.04191 34.4712 3.45138 33.0942 2.17801 31.7157C1.64092 31.0734 1.32537 30.5475 1.00024 29.6869" stroke="black" stroke-width="2" stroke-linecap="round"/>
<path d="M6.41882 5.14362C6.83956 6.82658 7.79259 8.95578 8.96078 11.1312C9.49787 12.5703 10.3425 14.0589 11.7211 16.0191C12.3634 17.0327 12.8893 18.0846 14.0686 19.4871" stroke="black" stroke-width="2" stroke-linecap="round"/>
<path d="M27.1371 1C27.1371 3.52445 27.2423 5.35085 27.4542 6.56844C27.6662 8.1016 27.7746 10.6515 27.8797 13.4119C27.9849 14.4892 28.1953 14.9099 28.412 15.3434" stroke="black" stroke-width="2" stroke-linecap="round"/>
<path d="M53.5928 5.14362C51.4891 8.29917 49.7742 10.9766 48.555 13.1488C47.441 15.4263 46.6888 17.6702 46.2123 19.4743C45.9461 20.2265 45.6306 20.6473 44.668 21.7183" stroke="black" stroke-width="2" stroke-linecap="round"/>
</svg>
